<?xml version="1.0" encoding="utf-8"?>
<!-- Generator: Adobe Illustrator 22.1.0, SVG Export Plug-In . SVG Version: 6.00 Build 0)  -->
<svg version="1.1" id="Layer_1" xmlns="http://www.w3.org/2000/svg" xmlns:xlink="http://www.w3.org/1999/xlink" x="0px" y="0px"
	 viewBox="0 0 180 252" style="enable-background:new 0 0 180 252;" xml:space="preserve">
<style type="text/css">
	.st0{opacity:0.9;}
	.st1{fill:#D3D3D3;}
	.st2{opacity:0.85;fill:#FFFFFF;enable-background:new    ;}
	.st3{fill:#FFFFFF;}
	.st4{fill:none;stroke:#FFFFFF;stroke-width:0.5;stroke-miterlimit:10;}
	.st5{fill:#B3B2B2;}
	.st6{opacity:0.15;}
	.st7{fill:#8D8D8E;}
</style>
<g id="Layer_1_1_">
	<title>dude</title>
	<g class="st0">
		<polygon class="st1" points="172.9,12.8 166.9,9.4 19.2,9.4 25.5,20.2 19.2,31.1 167,31.1 172.9,27.6 		"/>
	</g>
	<polygon class="st2" points="166.3,234 10.7,234 10.7,160.9 169.3,160.9 169.3,229.6 	"/>
	<path class="st3" d="M169.3,151.3l3.1,4.8l-3.1,4.8v68.7l-3,4.4H63.7l-5.3,8.3l-1.2,1.9H10.6l-6.7-10.5l6.7-10.5l0,0v-62.3h0.2
		l-3.1-4.8l3.1-4.8L169.3,151.3 M169.6,150.9h-159l-0.1,0.2l-3.1,4.8l-0.2,0.3l0.2,0.3l2.8,4.3v62.4l-6.7,10.4l-0.2,0.3l0.2,0.3
		l6.7,10.5l0.1,0.2h47.1l0.1-0.2l1.2-1.9l5.2-8.1h102.5l0.1-0.2l3.1-4.4l0.1-0.1v-69l3-4.6l0.2-0.3l-0.2-0.3l-3-4.8L169.6,150.9
		L169.6,150.9z"/>
	<polygon class="st4" points="31.8,31.1 167,31.1 172.9,27.6 172.9,12.8 166.9,9.4 26.7,9.4 20.2,5.6 7.2,13.1 7.2,28.1 8.6,28.9 
		20.2,35.6 28,31.1 	"/>
	<path class="st4" d="M29.7,43.4"/>
	<polygon class="st5" points="7.8,156.1 10.9,160.9 13.7,160.9 35.3,160.9 41.2,160.9 169.3,160.9 172.3,156.1 169.3,151.3 
		41.2,151.3 35.3,151.3 10.9,151.3 	"/>
	<line class="st4" x1="10.7" y1="161.1" x2="169.3" y2="161.1"/>
	<g class="st6">
		<polygon points="172,155.5 168.9,160.3 90.1,160.3 11.3,160.3 8.2,155.5 7.8,156.1 10.9,160.9 90.1,160.9 169.3,160.9 
			172.4,156.1 		"/>
	</g>
	<polygon class="st3" points="8.2,27.5 8.2,13.7 20.2,6.8 32.2,13.7 32.2,27.5 20.2,34.4 	"/>
	<path class="st7" d="M20.2,7.9l11,6.3v12.7l-11,6.3l-11-6.3V14.3L20.2,7.9 M20.2,5.6l-13,7.5v15l13,7.5l13-7.5v-15
		C33.2,13.1,20.2,5.6,20.2,5.6z"/>
	<polygon class="st3" points="11.2,243.2 5.1,233.7 11.2,224.2 56.6,224.2 62.7,233.7 56.6,243.2 	"/>
	<path class="st7" d="M56.1,225.2l5.4,8.5l-5.4,8.5H11.7l-5.4-8.5l5.4-8.5H56.1 M57.2,223.2H10.6l-6.7,10.5l6.7,10.5h46.5l6.7-10.5
		L57.2,223.2L57.2,223.2z"/>
</g>
</svg>
